<?xml version="1.0" standalone="no"?>
<!DOCTYPE svg PUBLIC "-//W3C//DTD SVG 20010904//EN"
 "http://www.w3.org/TR/2001/REC-SVG-20010904/DTD/svg10.dtd">
<svg version="1.0" xmlns="http://www.w3.org/2000/svg"
 width="160.000000pt" height="160.000000pt" viewBox="0 0 160.000000 160.000000"
 preserveAspectRatio="xMidYMid meet">
<metadata>
Created by potrace 1.11, written by Peter Selinger 2001-2013
</metadata>
<g transform="translate(0.000000,160.000000) scale(0.100000,-0.100000)"
fill="#000000" stroke="none">
<path d="M685 1546 c-27 -13 -83 -52 -124 -87 l-74 -63 -23 30 c-13 16 -24 32
-24 36 0 14 -40 18 -59 6 -31 -19 -26 -35 21 -59 l42 -21 -25 -19 c-13 -10
-27 -19 -31 -19 -14 0 -176 -119 -215 -158 -147 -146 -172 -321 -75 -532 16
-36 37 -95 47 -132 20 -74 31 -78 69 -21 10 15 37 42 60 59 l42 32 31 -67 c94
-196 326 -372 539 -406 27 -5 56 -10 64 -12 36 -8 157 -9 204 -1 28 4 84 10
124 12 81 4 116 21 126 62 4 15 29 73 55 128 54 113 68 156 75 242 2 23 6 46
8 50 16 28 -6 206 -36 293 -45 133 -170 305 -290 399 -26 21 -118 61 -153 68
-29 5 -47 24 -24 24 5 0 25 7 46 16 l38 15 -127 73 c-120 69 -130 73 -194 75
-53 1 -78 -4 -117 -23z"/>
</g>
</svg>
